<?xml version="1.0" encoding="UTF-8" standalone="no"?>
<!-- Created with Inkscape (http://www.inkscape.org/) -->

<svg
   xmlns:dc="http://purl.org/dc/elements/1.1/"
   xmlns:cc="http://creativecommons.org/ns#"
   xmlns:rdf="http://www.w3.org/1999/02/22-rdf-syntax-ns#"
   xmlns:svg="http://www.w3.org/2000/svg"
   xmlns="http://www.w3.org/2000/svg"
   xmlns:sodipodi="http://sodipodi.sourceforge.net/DTD/sodipodi-0.dtd"
   xmlns:inkscape="http://www.inkscape.org/namespaces/inkscape"
   width="190.35641mm"
   height="152.68253mm"
   viewBox="0 0 674.49123 541.00107"
   id="svg4348"
   version="1.1"
   inkscape:version="0.91 r13725"
   sodipodi:docname="bikerhead.svg">
  <defs
     id="defs4350" />
  <sodipodi:namedview
     id="base"
     pagecolor="#ffffff"
     bordercolor="#666666"
     borderopacity="1.0"
     inkscape:pageopacity="0.0"
     inkscape:pageshadow="2"
     inkscape:zoom="0.70710678"
     inkscape:cx="362.17904"
     inkscape:cy="172.67883"
     inkscape:document-units="px"
     inkscape:current-layer="layer1"
     showgrid="false"
     inkscape:window-width="1375"
     inkscape:window-height="876"
     inkscape:window-x="65"
     inkscape:window-y="24"
     inkscape:window-maximized="1"
     fit-margin-top="0"
     fit-margin-left="0"
     fit-margin-right="0"
     fit-margin-bottom="0" />
  <metadata
     id="metadata4353">
    <rdf:RDF>
      <cc:Work
         rdf:about="">
        <dc:format>image/svg+xml</dc:format>
        <dc:type
           rdf:resource="http://purl.org/dc/dcmitype/StillImage" />
        <dc:title></dc:title>
      </cc:Work>
    </rdf:RDF>
  </metadata>
  <g
     inkscape:label="Layer 1"
     inkscape:groupmode="layer"
     id="layer1"
     transform="translate(-21.600467,-148.29371)">
    <g
       id="g4957">
      <path
         sodipodi:nodetypes="cssc"
         inkscape:connector-curvature="0"
         id="path4290"
         d="m 581.53646,372.94597 c 0.28464,9.59844 1.85949,22.40144 7.42083,30.74342 9.34156,14.01234 11.30011,42.28433 30.74341,48.76543 67.29416,22.43139 33.25571,-204.49377 -38.16424,-79.50885 z"
         style="fill:#1a1a1a;fill-rule:evenodd;stroke:none;stroke-width:1px;stroke-linecap:butt;stroke-linejoin:miter;stroke-opacity:1" />
      <path
         sodipodi:nodetypes="ccc"
         inkscape:connector-curvature="0"
         id="path4209"
         d="m 605.21185,452.36996 c 67.74133,4.43708 64.32732,68.88676 -6.74654,75.71128 z"
         style="display:inline;opacity:1;fill:#ef9f6d;fill-opacity:1;fill-rule:evenodd;stroke:#1a1a1a;stroke-width:21.20235825;stroke-linecap:butt;stroke-linejoin:miter;stroke-opacity:1" />
      <path
         sodipodi:nodetypes="ccc"
         inkscape:connector-curvature="0"
         id="path4211"
         d="m 137.4511,440.37611 2.99845,65.96626 C 60.239037,490.52124 94.764217,427.93556 137.4511,440.37611 Z"
         style="display:inline;opacity:1;fill:#ef9f6d;fill-opacity:1;fill-rule:evenodd;stroke:#1a1a1a;stroke-width:21.20235825;stroke-linecap:butt;stroke-linejoin:miter;stroke-opacity:1" />
      <path
         sodipodi:nodetypes="sssssssss"
         inkscape:connector-curvature="0"
         id="rect3348"
         d="m 227.97111,326.80759 288.21449,11.2244 c 48.24584,1.87891 82.39633,41.65908 89.93661,106.946 2.86291,24.78823 -0.62079,65.28534 -6.56883,98.66655 -11.35904,63.74798 -56.41933,103.97514 -133.71088,113.65602 -82.01889,10.27299 -163.17522,13.64555 -240.23902,-15.72209 -34.75137,-13.24311 -90.54731,-70.79318 -89.9366,-136.93067 l 0.57191,-61.93534 c 0.37447,-40.55547 43.48646,-117.78377 91.73232,-115.90487 z"
         style="display:inline;opacity:1;fill:#ef9f6d;fill-opacity:1;stroke:#1a1a1a;stroke-width:21.20235825;stroke-opacity:1" />
      <ellipse
         ry="44.396339"
         rx="27.123953"
         cy="439.68018"
         cx="257.63275"
         id="path3350"
         style="display:inline;opacity:1;fill:#000000;fill-opacity:1;stroke:none;stroke-width:1;stroke-opacity:1" />
      <ellipse
         style="display:inline;opacity:1;fill:#000000;fill-opacity:1;stroke:none;stroke-width:1;stroke-opacity:1"
         id="ellipse4152"
         cx="456.28122"
         cy="439.68018"
         rx="27.123953"
         ry="44.396339" />
      <ellipse
         ry="18.534569"
         rx="11.323699"
         cy="452.04889"
         cx="444.97876"
         id="ellipse4154"
         style="display:inline;opacity:1;fill:#ffffff;fill-opacity:1;stroke:none;stroke-width:1;stroke-opacity:1" />
      <ellipse
         style="display:inline;opacity:1;fill:#ffffff;fill-opacity:1;stroke:none;stroke-width:1;stroke-opacity:1"
         id="ellipse4156"
         cx="266.56995"
         cy="451.29922"
         rx="11.323699"
         ry="18.534569" />
      <ellipse
         transform="matrix(0.99924252,0.03891509,-0.03891509,0.99924252,0,0)"
         ry="13.867908"
         rx="30.73428"
         cy="515.04541"
         cx="219.51643"
         id="path4158"
         style="display:inline;opacity:1;fill:#ef5724;fill-opacity:1;stroke:none;stroke-width:1;stroke-opacity:1" />
      <ellipse
         transform="matrix(0.99924252,0.03891509,-0.03891509,0.99924252,0,0)"
         style="display:inline;opacity:1;fill:#ef5724;fill-opacity:1;stroke:none;stroke-width:1;stroke-opacity:1"
         id="ellipse4160"
         cx="527.22198"
         cy="513.09314"
         rx="37.098824"
         ry="16.739714" />
      <path
         sodipodi:nodetypes="cscc"
         inkscape:connector-curvature="0"
         id="path4162"
         d="m 304.37238,525.98362 c 19.84702,54.39107 18.19408,74.61259 36.5123,77.00731 16.16078,2.11269 31.28862,-36.80507 45.90008,-74.27036 -27.4708,-0.91229 -54.94158,-1.82463 -82.41238,-2.73695 z"
         style="display:inline;opacity:1;fill:#f21f05;fill-opacity:1;fill-rule:evenodd;stroke:none;stroke-width:1px;stroke-linecap:butt;stroke-linejoin:miter;stroke-opacity:1" />
      <path
         style="display:inline;opacity:1;fill:#ffffff;fill-opacity:1;fill-rule:evenodd;stroke:none;stroke-width:1px;stroke-linecap:butt;stroke-linejoin:miter;stroke-opacity:1"
         d="m 304.37238,525.98362 c -0.10476,25.43965 76.29746,26.31332 82.41238,2.73695 z"
         id="path4164"
         inkscape:connector-curvature="0"
         sodipodi:nodetypes="ccc" />
      <circle
         r="8.6205912"
         cy="436.2532"
         cx="260.01343"
         id="path4166"
         style="display:inline;opacity:1;fill:#ffe8a0;fill-opacity:1;stroke:none;stroke-width:1;stroke-opacity:1" />
      <circle
         style="display:inline;opacity:1;fill:#ffe8a0;fill-opacity:1;stroke:none;stroke-width:1;stroke-opacity:1"
         id="circle4168"
         cx="454.91373"
         cy="436.2532"
         r="8.6205912" />
      <path
         sodipodi:nodetypes="sssszzs"
         inkscape:connector-curvature="0"
         id="path4183"
         d="m 662.93234,393.89986 c -4.45971,14.64897 -513.63016,6.0877 -562.962071,6.74656 -20.178372,0.2695 -57.29446,-13.14648 -59.928637,-18.0824 C 31.99432,367.48487 75.602843,354.5056 82.729081,342.92595 130.67894,265.01061 185.2132,228.83944 228.15471,204.24686 c 42.94149,-24.5926 274.58178,-85.92697 382.30445,10.49463 107.72269,96.4216 56.59043,165.63432 52.47318,179.15837 z"
         style="display:inline;opacity:1;fill:#1a1a1a;fill-rule:evenodd;stroke:none;stroke-width:1px;stroke-linecap:butt;stroke-linejoin:miter;stroke-opacity:1" />
      <path
         sodipodi:nodetypes="ccccc"
         inkscape:connector-curvature="0"
         id="path4246"
         d="m 531.71091,394.14833 c 13.7707,59.97 37.5539,106.59 59.36661,155.83734 l 12.72141,-59.3666 c -13.05238,8.46377 -31.80191,-68.5297 -47.7053,-102.83145 z"
         style="display:inline;opacity:1;fill:#1a1a1a;fill-rule:evenodd;stroke:none;stroke-width:1px;stroke-linecap:butt;stroke-linejoin:miter;stroke-opacity:1" />
      <path
         inkscape:connector-curvature="0"
         id="path4253"
         d="m 238.72495,224.4862 c -36.88064,20.67709 -79.67692,51.85656 -122.01293,110.3061 -12.42994,17.16085 -37.181481,34.36883 -32.540667,41.33218 2.637994,3.95821 7.412404,11.28353 48.102847,6.8452 23.01705,-2.5106 144.97109,-1.8648 264.09776,-1.53219 0.642,-14.17763 1.27718,-27.98995 1.94631,-43.75886 0.24985,-5.88816 -0.17705,-11.43883 -1.18437,-16.66787 -1.00721,-5.22904 -2.59473,-10.13723 -4.67527,-14.74641 -2.08057,-4.60918 -4.65365,-8.91646 -7.62375,-12.94503 -2.97011,-4.02859 -6.33724,-7.77654 -10.01313,-11.26375 -3.67592,-3.48722 -7.658,-6.71329 -11.85593,-9.69843 -4.19795,-2.98512 -8.61174,-5.73087 -13.14795,-8.25319 -4.5362,-2.52229 -9.19437,-4.82102 -13.88507,-6.91975 -4.6907,-2.09874 -9.4141,-3.99613 -14.07554,-5.71056 -9.32291,-3.42882 -21.55571,-7.72551 -34.69817,-12.12094 -13.14245,-4.39543 -27.19524,-8.88998 -40.16439,-12.72141 -3.18664,-0.94144 -5.24371,-1.29529 -8.26975,-2.14509 z m 0.73712,13.39641 c 9.08638,0.18022 12.07248,6.75198 6.54706,14.73812 -29.39029,20.55157 -58.41512,41.8341 -86.39962,65.19725 -12.83909,6.61001 -21.72349,-5.06785 -12.72141,-14.84165 25.18744,-23.33446 53.09324,-45.03794 85.3395,-64.13713 2.71712,-0.70044 5.13762,-0.99821 7.23447,-0.95659 z m 43.53523,25.5919 c 21.59484,-0.60063 71.03738,17.31549 64.25309,27.31047 -7.4861,11.02894 -98.813,44.85537 -126.68409,49.82553 -27.8711,4.97017 -49.79511,-1.08303 -31.80355,-20.67229 17.99157,-19.58926 72.04149,-50.45315 88.51986,-55.65619 1.54484,-0.48778 3.48075,-0.7454 5.71469,-0.80752 z m 85.35192,45.23724 c 6.7863,0.065 12.91915,4.58947 10.39413,12.81251 -3.67273,11.96075 -4.42821,20.14485 -7.42081,23.76568 -2.9926,3.62082 -4.6727,7.91436 -21.42185,8.57205 -16.74917,0.65771 -26.24227,-0.47686 -54.59608,1.59018 -28.35381,2.06705 -15.85893,-8.66576 1.59019,-13.78152 17.44911,-5.11578 54.2193,-24.18594 62.54695,-30.21337 2.60241,-1.88358 5.82279,-2.77513 8.90747,-2.74553 z"
         style="display:inline;opacity:1;fill:#ec0a0a;fill-opacity:1;fill-rule:evenodd;stroke:none;stroke-width:1px;stroke-linecap:butt;stroke-linejoin:miter;stroke-opacity:1" />
      <path
         id="path4248"
         d="m 436.46594,184.03193 c -3.86995,0.007 -7.73664,0.0615 -11.59503,0.16155 -79.3731,2.05952 -155.07751,23.30982 -176.88235,34.85552 -2.95142,1.56279 -6.22418,3.7332 -9.26361,5.43726 3.02604,0.84981 5.08311,1.20366 8.26975,2.14509 12.96915,3.83143 27.02194,8.32597 40.16439,12.72142 13.14246,4.39541 25.37526,8.69212 34.69817,12.12094 4.66144,1.71441 9.38484,3.61181 14.07554,5.71055 4.6907,2.09874 9.34887,4.39746 13.88507,6.91976 4.53621,2.52231 8.95,5.26807 13.14795,8.25318 4.19793,2.98515 8.18001,6.21121 11.85593,9.69843 3.67589,3.48722 7.04302,7.23517 10.01313,11.26375 2.9701,4.02857 5.54318,8.33586 7.62375,12.94504 2.08054,4.60917 3.66806,9.51736 4.67527,14.74641 1.00724,5.22903 1.43422,10.7797 1.18437,16.66787 -0.66913,15.76889 -1.30431,29.58122 -1.94631,43.75886 126.40231,0.35293 249.69428,0.3535 250.84627,-4.09969 2.97622,-11.50504 43.12778,-69.05417 -54.11571,-149.53047 -39.88503,-33.00787 -98.58693,-43.86692 -156.63658,-43.77541 z m -68.44801,7.4581 c 5.26996,-0.0458 10.64195,0.36264 15.5415,0.969 9.79909,1.21274 27.02633,6.06987 28.35816,6.62575 3.0123,1.2573 12.67008,7.17299 -0.26503,10.60118 -12.93512,3.42818 -74.33398,15.35103 -84.14686,19.47966 -9.81287,4.12864 -15.59527,2.81385 -21.06985,0.92761 -5.47457,-1.88625 -9.85963,-5.0725 -12.85393,-7.55334 -2.9943,-2.48086 -5.39233,-5.29438 5.16807,-10.46867 10.56042,-5.17429 45.3329,-16.38054 54.33105,-18.81709 4.49908,-1.21829 9.66697,-1.71831 14.93689,-1.7641 z m 162.63286,18.19593 c 6.93233,-0.025 11.97272,1.08528 15.37171,3.18035 18.1987,10.4245 23.96063,9.70062 54.59608,31.27348 5.83669,6.38676 6.79523,12.13181 -2.12024,14.3116 l -32.33359,1.59018 c -5.85917,1.11712 -10.57235,-0.0577 -14.3116,-3.18037 -19.60355,-15.91039 -37.8281,-26.83909 -60.95678,-39.22436 -4.16633,-5.68709 -0.77461,-6.5645 2.6503,-7.42083 l 37.10412,-0.53005 z m -107.54813,15.9556 c 18.45618,0.19315 47.59172,3.47404 44.47112,5.24675 25.83293,7.22043 39.62924,15.77827 53.00589,24.38272 2.99609,8.62024 -0.0105,12.00102 -23.85265,12.72141 -23.84294,0.72039 -43.31733,3.37894 -65.19725,4.77053 -20.89082,0.89389 -35.13962,-0.18192 -37.10414,-1.85521 -1.9645,-1.67326 -10.93657,-9.75857 -31.80353,-15.3717 -20.86695,-5.61314 -11.50732,-15.83126 -1.06012,-18.022 10.44721,-2.19076 45.24466,-9.78437 48.23537,-10.86622 2.18913,-0.79189 7.15325,-1.07069 13.30531,-1.00628 z m 189.17722,64.0833 c 15.72776,0.50525 28.03282,17.50239 29.41827,24.38271 1.15068,5.71443 -4.38766,33.28029 -4.5055,34.45383 -0.67636,6.73598 -6.40229,7.77447 -9.80609,7.68586 -8.30706,-0.21626 -83.21927,-1.32515 -83.21927,-1.32515 0,0 -5.30059,-3.18034 -3.44537,-5.83065 1.8552,-2.65029 29.3994,-39.13047 35.24892,-44.25992 5.84952,-5.12945 20.58128,-15.61192 36.30904,-15.10668 z m -81.62909,2.65029 c 7.54989,0.47151 11.66834,3.08762 7.95089,10.60118 l -24.38271,42.40472 c -2.33162,7.38612 -9.16557,10.26994 -18.55206,10.60118 l -75.79844,0.53006 c -3.74701,-1.79927 -9.17998,0.33521 -9.01099,-10.60118 l 5.30058,-28.09313 c 4.73949,-4.92902 3.1194,-10.65298 18.022,-14.31158 l 96.47073,-11.13125 z"
         style="display:inline;opacity:1;fill:#16b0bd;fill-opacity:1;fill-rule:evenodd;stroke:none;stroke-width:1px;stroke-linecap:butt;stroke-linejoin:miter;stroke-opacity:1"
         inkscape:connector-curvature="0" />
      <path
         sodipodi:nodetypes="csssc"
         inkscape:connector-curvature="0"
         id="path4294"
         d="m 149.33555,397.6407 c -32.94929,42.27862 32.05438,15.32421 35.55612,6.88886 1.32611,-3.19447 -14.23087,23.41887 -10.66685,24.79988 17.60858,6.8232 90.7939,-32.01185 49.92039,-35.07245 -23.16273,-1.73441 -53.58453,-2.78471 -74.80966,3.38371 z"
         style="display:inline;opacity:1;fill:#1a1a1a;fill-rule:evenodd;stroke:none;stroke-width:1px;stroke-linecap:butt;stroke-linejoin:miter;stroke-opacity:1" />
    </g>
  </g>
</svg>
